<mxfile host="Electron" modified="2023-06-13T15:13:29.698Z" agent="Mozilla/5.0 (Windows NT 10.0; Win64; x64) AppleWebKit/537.36 (KHTML, like Gecko) draw.io/21.3.7 Chrome/112.0.5615.204 Electron/24.5.0 Safari/537.36" etag="iaU40Uv8DlVpQrxPQN3l" version="21.3.7" type="device">
  <diagram id="1c_dBoiHx9k35L1KwPgy" name="Page-1">
    <mxGraphModel dx="875" dy="524" grid="1" gridSize="10" guides="1" tooltips="1" connect="1" arrows="1" fold="1" page="1" pageScale="1" pageWidth="827" pageHeight="1169" math="0" shadow="0">
      <root>
        <mxCell id="0" />
        <mxCell id="1" parent="0" />
        <mxCell id="-Wfafacec-CcXykp39Gz-8" value="" style="rounded=0;whiteSpace=wrap;html=1;fillColor=none;strokeColor=#0896d4;strokeWidth=2;fontColor=#000000;labelBackgroundColor=default;" parent="1" vertex="1">
          <mxGeometry x="210" y="520" width="440" height="150" as="geometry" />
        </mxCell>
        <mxCell id="-Wfafacec-CcXykp39Gz-3" style="edgeStyle=orthogonalEdgeStyle;rounded=0;orthogonalLoop=1;jettySize=auto;html=1;" parent="1" source="EUTEiHrgOIOFcqVKMw8A-1" target="-Wfafacec-CcXykp39Gz-1" edge="1">
          <mxGeometry relative="1" as="geometry" />
        </mxCell>
        <mxCell id="EUTEiHrgOIOFcqVKMw8A-1" value="Other" style="rounded=0;whiteSpace=wrap;html=1;fillColor=#d5e8d4;strokeColor=#82b366;" parent="1" vertex="1">
          <mxGeometry x="370" y="320" width="120" height="60" as="geometry" />
        </mxCell>
        <mxCell id="EUTEiHrgOIOFcqVKMw8A-3" value="CQR" style="rounded=0;whiteSpace=wrap;html=1;" parent="1" vertex="1">
          <mxGeometry x="490" y="570" width="120" height="60" as="geometry" />
        </mxCell>
        <mxCell id="-Wfafacec-CcXykp39Gz-1" value="«interface»&lt;br&gt;&lt;b&gt;IRepository&lt;/b&gt;" style="html=1;whiteSpace=wrap;" parent="1" vertex="1">
          <mxGeometry x="370" y="450" width="120" height="60" as="geometry" />
        </mxCell>
        <mxCell id="-Wfafacec-CcXykp39Gz-2" value="" style="endArrow=block;dashed=1;endFill=0;endSize=12;html=1;rounded=0;exitX=0.5;exitY=0;exitDx=0;exitDy=0;entryX=1;entryY=0.5;entryDx=0;entryDy=0;" parent="1" source="EUTEiHrgOIOFcqVKMw8A-3" target="-Wfafacec-CcXykp39Gz-1" edge="1">
          <mxGeometry width="160" relative="1" as="geometry">
            <mxPoint x="400" y="490" as="sourcePoint" />
            <mxPoint x="560" y="490" as="targetPoint" />
            <Array as="points">
              <mxPoint x="550" y="480" />
            </Array>
          </mxGeometry>
        </mxCell>
        <mxCell id="-Wfafacec-CcXykp39Gz-4" value="Mocks" style="rounded=0;whiteSpace=wrap;html=1;" parent="1" vertex="1">
          <mxGeometry x="250" y="570" width="120" height="60" as="geometry" />
        </mxCell>
        <mxCell id="-Wfafacec-CcXykp39Gz-5" value="" style="endArrow=block;dashed=1;endFill=0;endSize=12;html=1;rounded=0;exitX=0.5;exitY=0;exitDx=0;exitDy=0;entryX=0;entryY=0.5;entryDx=0;entryDy=0;" parent="1" source="-Wfafacec-CcXykp39Gz-4" target="-Wfafacec-CcXykp39Gz-1" edge="1">
          <mxGeometry width="160" relative="1" as="geometry">
            <mxPoint x="600" y="580" as="sourcePoint" />
            <mxPoint x="500" y="490" as="targetPoint" />
            <Array as="points">
              <mxPoint x="310" y="480" />
            </Array>
          </mxGeometry>
        </mxCell>
        <mxCell id="-Wfafacec-CcXykp39Gz-7" value="Core" style="text;strokeColor=none;fillColor=none;html=1;fontSize=24;fontStyle=1;verticalAlign=middle;align=center;fontColor=#ff9933;labelBorderColor=none;labelBackgroundColor=default;" parent="1" vertex="1">
          <mxGeometry x="380" y="260" width="100" height="40" as="geometry" />
        </mxCell>
        <mxCell id="-Wfafacec-CcXykp39Gz-6" value="" style="rounded=0;whiteSpace=wrap;html=1;fillColor=none;strokeColor=#FF9933;strokeWidth=2;" parent="1" vertex="1">
          <mxGeometry x="270" y="300" width="320" height="220" as="geometry" />
        </mxCell>
        <mxCell id="-Wfafacec-CcXykp39Gz-9" value="Externals" style="text;strokeColor=none;fillColor=none;html=1;fontSize=24;fontStyle=1;verticalAlign=middle;align=center;fontColor=#0896d4;labelBorderColor=none;" parent="1" vertex="1">
          <mxGeometry x="370" y="630" width="120" height="40" as="geometry" />
        </mxCell>
        <mxCell id="y6pI81CHrDOY4QqyDqS8-1" value="&amp;nbsp; Иван" style="rounded=0;whiteSpace=wrap;html=1;align=left;" vertex="1" parent="1">
          <mxGeometry x="1060" y="380" width="190" height="30" as="geometry" />
        </mxCell>
        <mxCell id="y6pI81CHrDOY4QqyDqS8-2" value="&amp;nbsp; **********" style="rounded=0;whiteSpace=wrap;html=1;align=left;fillColor=#f8cecc;strokeColor=#b85450;" vertex="1" parent="1">
          <mxGeometry x="1060" y="430" width="190" height="30" as="geometry" />
        </mxCell>
        <mxCell id="y6pI81CHrDOY4QqyDqS8-3" value="Сохранить" style="rounded=0;whiteSpace=wrap;html=1;align=center;fillColor=#dae8fc;strokeColor=#6c8ebf;" vertex="1" parent="1">
          <mxGeometry x="1060" y="490" width="190" height="30" as="geometry" />
        </mxCell>
        <mxCell id="y6pI81CHrDOY4QqyDqS8-4" value="&lt;b&gt;Регистрация&lt;/b&gt;" style="text;html=1;align=center;verticalAlign=middle;resizable=0;points=[];autosize=1;strokeColor=none;fillColor=none;" vertex="1" parent="1">
          <mxGeometry x="1105" y="330" width="100" height="30" as="geometry" />
        </mxCell>
        <mxCell id="y6pI81CHrDOY4QqyDqS8-5" value="&lt;font style=&quot;font-size: 10px;&quot;&gt;Должен содержать один спец. символ&lt;/font&gt;" style="text;html=1;align=center;verticalAlign=middle;resizable=0;points=[];autosize=1;strokeColor=none;fillColor=none;fontColor=#FF6666;" vertex="1" parent="1">
          <mxGeometry x="1055" y="453" width="200" height="30" as="geometry" />
        </mxCell>
      </root>
    </mxGraphModel>
  </diagram>
</mxfile>
